<mxfile host="app.diagrams.net" modified="2023-10-26T07:53:00.093Z" agent="Mozilla/5.0 (Macintosh; Intel Mac OS X 10_15_7) AppleWebKit/537.36 (KHTML, like Gecko) Chrome/116.0.0.0 Safari/537.36" etag="NJZ2GCb4lngvA1LGtgGQ" version="21.6.8" type="device" pages="4">
  <diagram id="6w4wytHeZHItxJSY8a8P" name="HighLevel-Internet-S3">
    <mxGraphModel dx="954" dy="532" grid="1" gridSize="10" guides="1" tooltips="1" connect="1" arrows="1" fold="1" page="1" pageScale="1" pageWidth="827" pageHeight="1169" math="0" shadow="0">
      <root>
        <mxCell id="0" />
        <mxCell id="1" parent="0" />
        <mxCell id="_NrvlEptsC0UllmxARYw-12" value="" style="rounded=1;arcSize=10;dashed=0;fillColor=none;gradientColor=none;strokeWidth=2;" parent="1" vertex="1">
          <mxGeometry x="50" y="160" width="190" height="150" as="geometry" />
        </mxCell>
        <mxCell id="_NrvlEptsC0UllmxARYw-15" value="" style="edgeStyle=orthogonalEdgeStyle;rounded=0;orthogonalLoop=1;jettySize=auto;html=1;" parent="1" edge="1">
          <mxGeometry relative="1" as="geometry">
            <mxPoint x="440" y="221.5" as="targetPoint" />
            <mxPoint x="360" y="222" as="sourcePoint" />
          </mxGeometry>
        </mxCell>
        <mxCell id="_NrvlEptsC0UllmxARYw-11" value="Actor" style="shape=umlActor;verticalLabelPosition=bottom;verticalAlign=top;html=1;outlineConnect=0;" parent="1" vertex="1">
          <mxGeometry x="60" y="192" width="30" height="60" as="geometry" />
        </mxCell>
        <mxCell id="_NrvlEptsC0UllmxARYw-13" value="" style="dashed=0;html=1;shape=mxgraph.aws3.corporate_data_center;fillColor=#7D7C7C;gradientColor=none;dashed=0;" parent="1" vertex="1">
          <mxGeometry x="60" y="140" width="30" height="42" as="geometry" />
        </mxCell>
        <mxCell id="_NrvlEptsC0UllmxARYw-17" value="" style="edgeStyle=orthogonalEdgeStyle;rounded=0;orthogonalLoop=1;jettySize=auto;html=1;" parent="1" source="_NrvlEptsC0UllmxARYw-11" target="_NrvlEptsC0UllmxARYw-18" edge="1">
          <mxGeometry relative="1" as="geometry">
            <mxPoint x="135" y="222" as="sourcePoint" />
            <mxPoint x="346" y="225" as="targetPoint" />
          </mxGeometry>
        </mxCell>
        <mxCell id="_NrvlEptsC0UllmxARYw-19" value="Get ExampleData" style="edgeLabel;html=1;align=center;verticalAlign=middle;resizable=0;points=[];" parent="_NrvlEptsC0UllmxARYw-17" vertex="1" connectable="0">
          <mxGeometry x="-0.1" y="-1" relative="1" as="geometry">
            <mxPoint as="offset" />
          </mxGeometry>
        </mxCell>
        <mxCell id="91z7u6RmwiImePiHFjR2-3" value="" style="edgeStyle=orthogonalEdgeStyle;rounded=0;orthogonalLoop=1;jettySize=auto;html=1;" edge="1" parent="1" source="_NrvlEptsC0UllmxARYw-18" target="91z7u6RmwiImePiHFjR2-2">
          <mxGeometry relative="1" as="geometry" />
        </mxCell>
        <mxCell id="_NrvlEptsC0UllmxARYw-18" value="Egress Proxy/&lt;br&gt;Firewall" style="verticalLabelPosition=bottom;sketch=0;aspect=fixed;html=1;verticalAlign=top;strokeColor=none;align=center;outlineConnect=0;shape=mxgraph.citrix.proxy_server;" parent="1" vertex="1">
          <mxGeometry x="189" y="192" width="51" height="60" as="geometry" />
        </mxCell>
        <mxCell id="91z7u6RmwiImePiHFjR2-1" value="Amazon S3" style="sketch=0;outlineConnect=0;fontColor=#232F3E;gradientColor=none;strokeColor=#ffffff;fillColor=#232F3E;dashed=0;verticalLabelPosition=middle;verticalAlign=bottom;align=center;html=1;whiteSpace=wrap;fontSize=10;fontStyle=1;spacing=3;shape=mxgraph.aws4.productIcon;prIcon=mxgraph.aws4.s3;" vertex="1" parent="1">
          <mxGeometry x="440" y="182" width="80" height="100" as="geometry" />
        </mxCell>
        <mxCell id="91z7u6RmwiImePiHFjR2-2" value="Internet" style="image;aspect=fixed;perimeter=ellipsePerimeter;html=1;align=center;shadow=0;dashed=0;spacingTop=3;image=img/lib/active_directory/internet_cloud.svg;" vertex="1" parent="1">
          <mxGeometry x="310" y="206.25" width="50" height="31.5" as="geometry" />
        </mxCell>
      </root>
    </mxGraphModel>
  </diagram>
  <diagram id="Z8sB3n-v1MQ_edwop-S7" name="Concept-IAM-S3">
    <mxGraphModel dx="954" dy="532" grid="1" gridSize="10" guides="1" tooltips="1" connect="1" arrows="1" fold="1" page="1" pageScale="1" pageWidth="827" pageHeight="1169" math="0" shadow="0">
      <root>
        <mxCell id="0" />
        <mxCell id="1" parent="0" />
        <mxCell id="LtdovmktsygQ0qGrRccR-1" value="Victim Account" style="points=[[0,0],[0.25,0],[0.5,0],[0.75,0],[1,0],[1,0.25],[1,0.5],[1,0.75],[1,1],[0.75,1],[0.5,1],[0.25,1],[0,1],[0,0.75],[0,0.5],[0,0.25]];outlineConnect=0;gradientColor=none;html=1;whiteSpace=wrap;fontSize=12;fontStyle=0;container=1;pointerEvents=0;collapsible=0;recursiveResize=0;shape=mxgraph.aws4.group;grIcon=mxgraph.aws4.group_account;strokeColor=#CD2264;fillColor=none;verticalAlign=top;align=left;spacingLeft=30;fontColor=#CD2264;dashed=0;" parent="1" vertex="1">
          <mxGeometry x="90" y="100" width="130" height="270" as="geometry" />
        </mxCell>
        <mxCell id="LtdovmktsygQ0qGrRccR-2" value="RoleA" style="sketch=0;outlineConnect=0;fontColor=#232F3E;gradientColor=none;fillColor=#BF0816;strokeColor=none;dashed=0;verticalLabelPosition=bottom;verticalAlign=top;align=center;html=1;fontSize=12;fontStyle=0;aspect=fixed;pointerEvents=1;shape=mxgraph.aws4.role;" parent="LtdovmktsygQ0qGrRccR-1" vertex="1">
          <mxGeometry x="21" y="103" width="78" height="44" as="geometry" />
        </mxCell>
        <mxCell id="LtdovmktsygQ0qGrRccR-3" value="---&#xa;Statement:&#xa;- Effect: Deny&#xa;  Action: *&#xa;  Resource: *&#xa;" style="text;whiteSpace=wrap;fontSize=12;fontStyle=0" parent="LtdovmktsygQ0qGrRccR-1" vertex="1">
          <mxGeometry y="160" width="130" height="100" as="geometry" />
        </mxCell>
        <mxCell id="LtdovmktsygQ0qGrRccR-4" value="Attacker Account" style="points=[[0,0],[0.25,0],[0.5,0],[0.75,0],[1,0],[1,0.25],[1,0.5],[1,0.75],[1,1],[0.75,1],[0.5,1],[0.25,1],[0,1],[0,0.75],[0,0.5],[0,0.25]];outlineConnect=0;gradientColor=none;html=1;whiteSpace=wrap;fontSize=12;fontStyle=0;container=1;pointerEvents=0;collapsible=0;recursiveResize=0;shape=mxgraph.aws4.group;grIcon=mxgraph.aws4.group_account;strokeColor=#CD2264;fillColor=none;verticalAlign=top;align=left;spacingLeft=30;fontColor=#CD2264;dashed=0;" parent="1" vertex="1">
          <mxGeometry x="320" y="100" width="140" height="210" as="geometry" />
        </mxCell>
        <mxCell id="LtdovmktsygQ0qGrRccR-5" value="AttackerBucket" style="sketch=0;outlineConnect=0;fontColor=#232F3E;gradientColor=none;strokeColor=#ffffff;fillColor=#232F3E;dashed=0;verticalLabelPosition=middle;verticalAlign=bottom;align=center;html=1;whiteSpace=wrap;fontSize=10;fontStyle=1;spacing=3;shape=mxgraph.aws4.productIcon;prIcon=mxgraph.aws4.s3;" parent="LtdovmktsygQ0qGrRccR-4" vertex="1">
          <mxGeometry x="26" y="70" width="80" height="110" as="geometry" />
        </mxCell>
        <mxCell id="LtdovmktsygQ0qGrRccR-9" value="" style="edgeStyle=orthogonalEdgeStyle;rounded=0;orthogonalLoop=1;jettySize=auto;html=1;" parent="1" source="LtdovmktsygQ0qGrRccR-2" target="LtdovmktsygQ0qGrRccR-5" edge="1">
          <mxGeometry relative="1" as="geometry">
            <mxPoint x="358.7860095264339" y="269" as="targetPoint" />
          </mxGeometry>
        </mxCell>
        <mxCell id="LtdovmktsygQ0qGrRccR-10" value="GetObject ExampleData" style="edgeLabel;html=1;align=center;verticalAlign=middle;resizable=0;points=[];" parent="LtdovmktsygQ0qGrRccR-9" vertex="1" connectable="0">
          <mxGeometry x="0.3412" relative="1" as="geometry">
            <mxPoint x="-34" as="offset" />
          </mxGeometry>
        </mxCell>
      </root>
    </mxGraphModel>
  </diagram>
  <diagram name="AttackScenario" id="A1HA6lCMP8bWVDyMseeb">
    <mxGraphModel dx="954" dy="532" grid="1" gridSize="10" guides="1" tooltips="1" connect="1" arrows="1" fold="1" page="1" pageScale="1" pageWidth="827" pageHeight="1169" math="0" shadow="0">
      <root>
        <mxCell id="0" />
        <mxCell id="1" parent="0" />
        <mxCell id="JmauJlPStu3OyQvhMDV_-1" value="Victim Account" style="points=[[0,0],[0.25,0],[0.5,0],[0.75,0],[1,0],[1,0.25],[1,0.5],[1,0.75],[1,1],[0.75,1],[0.5,1],[0.25,1],[0,1],[0,0.75],[0,0.5],[0,0.25]];outlineConnect=0;gradientColor=none;html=1;whiteSpace=wrap;fontSize=12;fontStyle=0;container=1;pointerEvents=0;collapsible=0;recursiveResize=0;shape=mxgraph.aws4.group;grIcon=mxgraph.aws4.group_account;strokeColor=#CD2264;fillColor=none;verticalAlign=top;align=left;spacingLeft=30;fontColor=#CD2264;dashed=0;" parent="1" vertex="1">
          <mxGeometry x="90" y="100" width="130" height="270" as="geometry" />
        </mxCell>
        <mxCell id="JmauJlPStu3OyQvhMDV_-5" value="RoleA" style="sketch=0;outlineConnect=0;fontColor=#232F3E;gradientColor=none;fillColor=#BF0816;strokeColor=none;dashed=0;verticalLabelPosition=bottom;verticalAlign=top;align=center;html=1;fontSize=12;fontStyle=0;aspect=fixed;pointerEvents=1;shape=mxgraph.aws4.role;" parent="JmauJlPStu3OyQvhMDV_-1" vertex="1">
          <mxGeometry x="21" y="103" width="78" height="44" as="geometry" />
        </mxCell>
        <mxCell id="OItnV8NCSlVaSfiZo24a-2" value="---&#xa;Statement:&#xa;- Effect: Deny&#xa;  Action: *&#xa;  Resource: *&#xa;" style="text;whiteSpace=wrap;fontSize=12;fontStyle=0" parent="JmauJlPStu3OyQvhMDV_-1" vertex="1">
          <mxGeometry y="160" width="130" height="100" as="geometry" />
        </mxCell>
        <mxCell id="JmauJlPStu3OyQvhMDV_-3" value="Attacker Account" style="points=[[0,0],[0.25,0],[0.5,0],[0.75,0],[1,0],[1,0.25],[1,0.5],[1,0.75],[1,1],[0.75,1],[0.5,1],[0.25,1],[0,1],[0,0.75],[0,0.5],[0,0.25]];outlineConnect=0;gradientColor=none;html=1;whiteSpace=wrap;fontSize=12;fontStyle=0;container=1;pointerEvents=0;collapsible=0;recursiveResize=0;shape=mxgraph.aws4.group;grIcon=mxgraph.aws4.group_account;strokeColor=#CD2264;fillColor=none;verticalAlign=top;align=left;spacingLeft=30;fontColor=#CD2264;dashed=0;" parent="1" vertex="1">
          <mxGeometry x="320" y="100" width="336" height="220" as="geometry" />
        </mxCell>
        <mxCell id="JmauJlPStu3OyQvhMDV_-4" value="AttackerBucket" style="sketch=0;outlineConnect=0;fontColor=#232F3E;gradientColor=none;strokeColor=#ffffff;fillColor=#232F3E;dashed=0;verticalLabelPosition=middle;verticalAlign=bottom;align=center;html=1;whiteSpace=wrap;fontSize=10;fontStyle=1;spacing=3;shape=mxgraph.aws4.productIcon;prIcon=mxgraph.aws4.s3;" parent="JmauJlPStu3OyQvhMDV_-3" vertex="1">
          <mxGeometry x="26" y="70" width="80" height="110" as="geometry" />
        </mxCell>
        <mxCell id="JmauJlPStu3OyQvhMDV_-6" value="AttackerLoggingBucket" style="sketch=0;outlineConnect=0;fontColor=#232F3E;gradientColor=none;strokeColor=#ffffff;fillColor=#232F3E;dashed=0;verticalLabelPosition=middle;verticalAlign=bottom;align=center;html=1;whiteSpace=wrap;fontSize=10;fontStyle=1;spacing=3;shape=mxgraph.aws4.productIcon;prIcon=mxgraph.aws4.s3;" parent="JmauJlPStu3OyQvhMDV_-3" vertex="1">
          <mxGeometry x="246" y="70" width="80" height="110" as="geometry" />
        </mxCell>
        <mxCell id="JmauJlPStu3OyQvhMDV_-17" value="" style="edgeStyle=orthogonalEdgeStyle;rounded=0;orthogonalLoop=1;jettySize=auto;html=1;" parent="JmauJlPStu3OyQvhMDV_-3" source="JmauJlPStu3OyQvhMDV_-4" target="JmauJlPStu3OyQvhMDV_-6" edge="1">
          <mxGeometry relative="1" as="geometry">
            <mxPoint x="86" y="250" as="targetPoint" />
          </mxGeometry>
        </mxCell>
        <mxCell id="JmauJlPStu3OyQvhMDV_-18" value="RoleA tried to access&lt;br&gt;ExampleData" style="edgeLabel;html=1;align=center;verticalAlign=middle;resizable=0;points=[];" parent="JmauJlPStu3OyQvhMDV_-17" vertex="1" connectable="0">
          <mxGeometry x="-0.4286" relative="1" as="geometry">
            <mxPoint x="19" as="offset" />
          </mxGeometry>
        </mxCell>
        <mxCell id="JmauJlPStu3OyQvhMDV_-14" value="" style="edgeStyle=orthogonalEdgeStyle;rounded=0;orthogonalLoop=1;jettySize=auto;html=1;" parent="1" source="JmauJlPStu3OyQvhMDV_-5" target="JmauJlPStu3OyQvhMDV_-4" edge="1">
          <mxGeometry relative="1" as="geometry">
            <mxPoint x="358.7860095264339" y="269" as="targetPoint" />
          </mxGeometry>
        </mxCell>
        <mxCell id="JmauJlPStu3OyQvhMDV_-15" value="GetObject ExampleData" style="edgeLabel;html=1;align=center;verticalAlign=middle;resizable=0;points=[];" parent="JmauJlPStu3OyQvhMDV_-14" vertex="1" connectable="0">
          <mxGeometry x="0.3412" relative="1" as="geometry">
            <mxPoint x="-34" as="offset" />
          </mxGeometry>
        </mxCell>
      </root>
    </mxGraphModel>
  </diagram>
  <diagram id="jH32TtFSn27Jlei8VYws" name="VPC">
    <mxGraphModel dx="954" dy="532" grid="1" gridSize="10" guides="1" tooltips="1" connect="1" arrows="1" fold="1" page="1" pageScale="1" pageWidth="827" pageHeight="1169" math="0" shadow="0">
      <root>
        <mxCell id="0" />
        <mxCell id="1" parent="0" />
        <mxCell id="zY0jOC5TyQtXmlbV0YCa-11" value="" style="edgeStyle=orthogonalEdgeStyle;rounded=0;orthogonalLoop=1;jettySize=auto;html=1;" edge="1" parent="1" target="zY0jOC5TyQtXmlbV0YCa-12">
          <mxGeometry relative="1" as="geometry">
            <mxPoint x="261" y="222" as="sourcePoint" />
            <mxPoint x="320" y="222" as="targetPoint" />
          </mxGeometry>
        </mxCell>
        <mxCell id="zY0jOC5TyQtXmlbV0YCa-12" value="Amazon S3" style="sketch=0;outlineConnect=0;fontColor=#232F3E;gradientColor=none;strokeColor=#ffffff;fillColor=#232F3E;dashed=0;verticalLabelPosition=middle;verticalAlign=bottom;align=center;html=1;whiteSpace=wrap;fontSize=10;fontStyle=1;spacing=3;shape=mxgraph.aws4.productIcon;prIcon=mxgraph.aws4.s3;" vertex="1" parent="1">
          <mxGeometry x="360" y="172" width="80" height="100" as="geometry" />
        </mxCell>
        <mxCell id="zY0jOC5TyQtXmlbV0YCa-13" value="AWS Account" style="points=[[0,0],[0.25,0],[0.5,0],[0.75,0],[1,0],[1,0.25],[1,0.5],[1,0.75],[1,1],[0.75,1],[0.5,1],[0.25,1],[0,1],[0,0.75],[0,0.5],[0,0.25]];outlineConnect=0;gradientColor=none;html=1;whiteSpace=wrap;fontSize=12;fontStyle=0;container=1;pointerEvents=0;collapsible=0;recursiveResize=0;shape=mxgraph.aws4.group;grIcon=mxgraph.aws4.group_account;strokeColor=#CD2264;fillColor=none;verticalAlign=top;align=left;spacingLeft=30;fontColor=#CD2264;dashed=0;" vertex="1" parent="1">
          <mxGeometry x="70" y="120" width="217" height="150" as="geometry" />
        </mxCell>
        <mxCell id="zY0jOC5TyQtXmlbV0YCa-14" value="S3" style="sketch=0;outlineConnect=0;fontColor=#232F3E;gradientColor=none;fillColor=#4D27AA;strokeColor=none;dashed=0;verticalLabelPosition=bottom;verticalAlign=top;align=center;html=1;fontSize=12;fontStyle=0;aspect=fixed;pointerEvents=1;shape=mxgraph.aws4.endpoints;" vertex="1" parent="zY0jOC5TyQtXmlbV0YCa-13">
          <mxGeometry x="135" y="70" width="54" height="54" as="geometry" />
        </mxCell>
        <mxCell id="zY0jOC5TyQtXmlbV0YCa-15" value="" style="edgeStyle=orthogonalEdgeStyle;rounded=0;orthogonalLoop=1;jettySize=auto;html=1;" edge="1" parent="zY0jOC5TyQtXmlbV0YCa-13" source="zY0jOC5TyQtXmlbV0YCa-16" target="zY0jOC5TyQtXmlbV0YCa-14">
          <mxGeometry relative="1" as="geometry" />
        </mxCell>
        <mxCell id="zY0jOC5TyQtXmlbV0YCa-16" value="" style="shape=umlActor;verticalLabelPosition=bottom;verticalAlign=top;html=1;outlineConnect=0;" vertex="1" parent="zY0jOC5TyQtXmlbV0YCa-13">
          <mxGeometry x="20" y="67" width="30" height="60" as="geometry" />
        </mxCell>
        <mxCell id="zY0jOC5TyQtXmlbV0YCa-17" value="- &quot;Allow&quot;:&quot;*&quot;&lt;br&gt;- &quot;Resource&quot;:&quot;*&quot;&lt;br&gt;- &quot;Action&quot;:&quot;*&quot;" style="text;html=1;align=left;verticalAlign=middle;resizable=0;points=[];autosize=1;strokeColor=none;fillColor=none;" vertex="1" parent="zY0jOC5TyQtXmlbV0YCa-13">
          <mxGeometry x="107" y="10" width="110" height="60" as="geometry" />
        </mxCell>
        <mxCell id="zY0jOC5TyQtXmlbV0YCa-18" value="No permissions" style="text;html=1;align=left;verticalAlign=middle;resizable=0;points=[];autosize=1;strokeColor=none;fillColor=none;" vertex="1" parent="zY0jOC5TyQtXmlbV0YCa-13">
          <mxGeometry y="22" width="110" height="30" as="geometry" />
        </mxCell>
      </root>
    </mxGraphModel>
  </diagram>
</mxfile>
